<?xml version="1.0" standalone="no"?>
<!DOCTYPE svg PUBLIC "-//W3C//DTD SVG 20010904//EN"
 "http://www.w3.org/TR/2001/REC-SVG-20010904/DTD/svg10.dtd">
<svg version="1.0" xmlns="http://www.w3.org/2000/svg"
 width="256.000000pt" height="242.000000pt" viewBox="0 0 256.000000 242.000000"
 preserveAspectRatio="xMidYMid meet">

<g transform="translate(0.000000,242.000000) scale(0.100000,-0.100000)"
fill="#000000" stroke="none">
<path d="M716 1983 c-29 -58 -104 -161 -161 -222 l-43 -46 60 -70 c32 -39 84
-109 115 -157 30 -49 56 -88 58 -88 2 0 16 21 32 48 38 66 91 138 153 205 l52
57 -26 33 c-15 17 -49 59 -76 92 -28 33 -69 90 -91 127 -22 38 -42 68 -44 68
-3 0 -16 -21 -29 -47z"/>
<path d="M1746 1961 c-25 -33 -81 -87 -124 -121 -102 -81 -122 -110 -122 -177
0 -45 5 -58 32 -89 57 -65 131 -81 203 -44 21 11 40 18 42 17 7 -8 -22 -86
-43 -114 l-25 -33 91 0 90 0 -30 53 c-16 30 -30 63 -30 75 l0 22 37 -20 c127
-68 274 46 234 181 -9 29 -32 55 -100 113 -49 42 -114 103 -143 136 -30 33
-57 60 -60 60 -3 0 -26 -27 -52 -59z"/>
<path d="M1733 960 c-63 -38 -87 -108 -59 -174 9 -21 16 -39 16 -40 0 -1 -19
0 -42 2 -85 6 -152 -58 -150 -144 1 -85 62 -138 150 -131 41 3 59 10 82 32 16
16 32 37 36 47 3 10 10 18 16 18 17 0 0 -80 -28 -127 l-25 -43 76 0 76 0 -27
35 c-19 25 -28 51 -31 88 l-5 52 21 -33 c33 -52 77 -74 139 -69 61 4 104 38
123 94 31 94 -49 192 -146 181 -33 -4 -36 -2 -29 16 17 51 15 121 -4 152 -38
60 -128 81 -189 44z"/>
<path d="M524 891 c-54 -33 -86 -131 -63 -198 20 -61 54 -104 136 -173 43 -35
94 -81 114 -102 l37 -39 23 28 c13 15 58 56 99 89 92 76 122 108 149 159 26
49 28 127 3 175 -48 96 -184 109 -252 23 l-22 -28 -20 28 c-11 15 -33 34 -49
42 -40 21 -117 19 -155 -4z"/>
</g>
</svg>
